<?xml version="1.0" encoding="utf-8"?>
<!-- Generator: Adobe Illustrator 19.0.0, SVG Export Plug-In . SVG Version: 6.00 Build 0)  -->
<svg xmlns="http://www.w3.org/2000/svg" xmlns:xlink="http://www.w3.org/1999/xlink" version="1.1" id="Layer_1" x="0px" y="0px" viewBox="0 2 98 98" style="enable-background:new 0 2 98 98;" xml:space="preserve" width="512" height="512">
<style type="text/css">
	.st0{fill:url(#SVGID_1_);}
</style>
<linearGradient id="SVGID_1_" gradientUnits="userSpaceOnUse" x1="49" y1="14" x2="49" y2="88">
	<stop offset="0" style="stop-color:#00EFD1"/>
	<stop offset="1" style="stop-color:#00ACEA"/>
</linearGradient>
<path class="st0" d="M81,25.5H65V19c0-2.8-2.2-5-5-5H38c-2.8,0-5,2.2-5,5v6.5H17c-1.7,0-3,1.3-3,3s1.3,3,3,3h4.3l4.6,52  c0.3,2.5,2.4,4.5,5,4.5h36.4c2.5,0,4.7-2,5-4.5l4.6-52H81c1.7,0,3-1.3,3-3S82.7,25.5,81,25.5z M39,20h20v5.5H39V20z M66.3,82H31.7  l-4.4-50.5h43.5L66.3,82z"/>
</svg>
